# xmcd CD database file
#
# Track frame offsets:
#	150
#	11710
#	22580
#	31855
#	47455
#	61170
#	72455
#	87345
#	98675
#	118635
#	133910
#	146930
#	156055
#
# Disc length: 2197 seconds
#
# Revision: 0
# Processed by: cddbd v1.5.1PL0 Copyright (c) Steve Scherf et al.
# Submitted via: CDex 1.51
#
DISCID=a608930d
DTITLE=Tom Chambers - Ranch Requests
DYEAR=1900
DGENRE=Country
TTITLE0=Don't Fence me In
TTITLE1=Ragtime Cowboy Joe
TTITLE2=Back In The Saddle Again
TTITLE3=Seven Spanish Angels
TTITLE4=The Wayward Wind
TTITLE5=Skyball Paint
TTITLE6=Desperado
TTITLE7=Auctioneer Song
TTITLE8=El Paso
TTITLE9=Main Walks Among Us
TTITLE10=Mariah
TTITLE11=Rawhide
TTITLE12=Happy Trails
EXTD=
EXTT0=
EXTT1=
EXTT2=
EXTT3=
EXTT4=
EXTT5=
EXTT6=
EXTT7=
EXTT8=
EXTT9=
EXTT10=
EXTT11=
EXTT12=
PLAYORDER=
